<svg width="32" height="32" viewBox="0 0 32 32" fill="none" xmlns="http://www.w3.org/2000/svg">
<path d="M28.0801 15.76L27.8667 15.4667C27.4934 15.0133 27.0534 14.6533 26.5467 14.3867C25.8667 14 25.0934 13.8 24.2934 13.8H7.69339C6.89339 13.8 6.13339 14 5.44006 14.3867C4.92006 14.6667 4.45339 15.0533 4.06673 15.5333C3.30673 16.5067 2.94673 17.7067 3.06673 18.9067L3.56006 25.1333C3.73339 27.0133 3.96006 29.3333 8.18673 29.3333H23.8134C28.0401 29.3333 28.2534 27.0133 28.4401 25.12L28.9334 18.92C29.0534 17.8 28.7601 16.68 28.0801 15.76ZM19.1867 23.12H12.8001C12.2801 23.12 11.8667 22.6933 11.8667 22.1867C11.8667 21.68 12.2801 21.2533 12.8001 21.2533H19.1867C19.7067 21.2533 20.1201 21.68 20.1201 22.1867C20.1201 22.7067 19.7067 23.12 19.1867 23.12Z" fill="#3366FF"/>
<path opacity="0.4" d="M4.50671 15.08C4.80005 14.8133 5.09338 14.5733 5.44005 14.3867C6.12005 14 6.89338 13.8 7.69338 13.8H24.3067C25.1067 13.8 25.8667 14 26.56 14.3867C26.9067 14.5733 27.2134 14.8133 27.4934 15.0933V14.3867V13.0933C27.4934 8.33334 26.04 6.88 21.28 6.88H18.1067C17.52 6.88 17.5067 6.86667 17.16 6.41334L15.56 4.26667C14.8 3.28001 14.2 2.66667 12.2934 2.66667H10.72C5.96005 2.66667 4.50671 4.12001 4.50671 8.88V14.4V15.08Z" fill="#3366FF"/>
</svg>
