<svg width="24" height="25" viewBox="0 0 24 25" fill="none" xmlns="http://www.w3.org/2000/svg">
<path fill-rule="evenodd" clip-rule="evenodd" d="M18 19.0289C16.897 19.0289 16 18.1319 16 17.0289C16 15.9259 16.897 15.0289 18 15.0289C19.103 15.0289 20 15.9259 20 17.0289C20 18.1319 19.103 19.0289 18 19.0289ZM6 15.0289C7.103 15.0289 8 15.9259 8 17.0289C8 18.1319 7.103 19.0289 6 19.0289C4.897 19.0289 4 18.1319 4 17.0289C4 15.9259 4.897 15.0289 6 15.0289ZM12 2.02893C6.486 2.02893 2 6.67893 2 12.3949V17.0289C2 19.2349 3.794 21.0289 6 21.0289C8.206 21.0289 10 19.2349 10 17.0289C10 14.8229 8.206 13.0289 6 13.0289C5.268 13.0289 4.591 13.2409 4 13.5859V12.3949C4 7.78193 7.589 4.02893 12 4.02893C16.411 4.02893 20 7.78193 20 12.3949V13.5859C19.409 13.2409 18.732 13.0289 18 13.0289C15.794 13.0289 14 14.8229 14 17.0289C14 19.2349 15.794 21.0289 18 21.0289C20.206 21.0289 22 19.2349 22 17.0289V12.3949C22 6.67893 17.514 2.02893 12 2.02893Z" fill="white"/>
</svg>
