<svg width="24" height="25" viewBox="0 0 24 25" fill="none" xmlns="http://www.w3.org/2000/svg">
<path d="M12 19.0289C15.31 19.0289 18 16.3389 18 13.0289V8.02893C18 4.71893 15.31 2.02893 12 2.02893C8.69 2.02893 6 4.71893 6 8.02893V13.0289C6 16.3389 8.69 19.0289 12 19.0289Z" stroke="white" stroke-width="1.5" stroke-linecap="round" stroke-linejoin="round"/>
<path d="M3 11.0289V13.0289C3 17.9989 7.03 22.0289 12 22.0289C16.97 22.0289 21 17.9989 21 13.0289V11.0289" stroke="white" stroke-width="1.5" stroke-linecap="round" stroke-linejoin="round"/>
<path d="M9.10999 7.50892C10.89 6.85892 12.83 6.85892 14.61 7.50892" stroke="white" stroke-width="1.5" stroke-linecap="round" stroke-linejoin="round"/>
<path d="M10.03 10.5089C11.23 10.1789 12.5 10.1789 13.7 10.5089" stroke="white" stroke-width="1.5" stroke-linecap="round" stroke-linejoin="round"/>
</svg>
