<svg width="24" height="25" viewBox="0 0 24 25" fill="none" xmlns="http://www.w3.org/2000/svg">
<path d="M21.47 19.0289V5.02893C21.47 3.02893 20.47 2.02893 18.47 2.02893H14.47C12.47 2.02893 11.47 3.02893 11.47 5.02893V19.0289C11.47 21.0289 12.47 22.0289 14.47 22.0289H18.47C20.47 22.0289 21.47 21.0289 21.47 19.0289Z" stroke="white" stroke-width="1.5" stroke-linecap="round"/>
<path d="M11.47 6.02893H16.47" stroke="white" stroke-width="1.5" stroke-linecap="round"/>
<path d="M11.47 18.0289H15.47" stroke="white" stroke-width="1.5" stroke-linecap="round"/>
<path d="M11.47 13.9789L16.47 14.0289" stroke="white" stroke-width="1.5" stroke-linecap="round"/>
<path d="M11.47 10.0289H14.47" stroke="white" stroke-width="1.5" stroke-linecap="round"/>
<path d="M5.49003 2.02893C3.86003 2.02893 2.53003 3.35893 2.53003 4.97893V17.9389C2.53003 18.3889 2.72003 19.0689 2.95003 19.4589L3.77003 20.8189C4.71003 22.3889 6.26003 22.3889 7.20003 20.8189L8.02003 19.4589C8.25003 19.0689 8.44003 18.3889 8.44003 17.9389V4.97893C8.44003 3.35893 7.11003 2.02893 5.49003 2.02893Z" stroke="white" stroke-width="1.5" stroke-linecap="round"/>
<path d="M8.44003 7.02893H2.53003" stroke="white" stroke-width="1.5" stroke-linecap="round"/>
</svg>
